<?xml version="1.0" encoding="UTF-8" standalone="no"?>
<!-- Created with Inkscape (http://www.inkscape.org/) -->

<svg
   xmlns:dc="http://purl.org/dc/elements/1.1/"
   xmlns:cc="http://creativecommons.org/ns#"
   xmlns:rdf="http://www.w3.org/1999/02/22-rdf-syntax-ns#"
   xmlns:svg="http://www.w3.org/2000/svg"
   xmlns="http://www.w3.org/2000/svg"
   xmlns:sodipodi="http://sodipodi.sourceforge.net/DTD/sodipodi-0.dtd"
   xmlns:inkscape="http://www.inkscape.org/namespaces/inkscape"
   width="1240"
   height="600"
   viewBox="0 0 328.08332 158.75"
   version="1.1"
   id="svg8"
   sodipodi:docname="AssetGeneratorSource1240x600.svg"
   inkscape:version="0.92.2 (5c3e80d, 2017-08-06)"
   inkscape:export-filename="C:\Users\Barna\source\repos\Bugs-and-Berries\inkscape files\SplashScreen.scale-125.png"
   inkscape:export-xdpi="60"
   inkscape:export-ydpi="60">
  <defs
     id="defs2" />
  <sodipodi:namedview
     id="base"
     pagecolor="#ffffff"
     bordercolor="#666666"
     borderopacity="1.0"
     inkscape:pageopacity="0.0"
     inkscape:pageshadow="2"
     inkscape:zoom="0.63798043"
     inkscape:cx="40.674914"
     inkscape:cy="-47.274073"
     inkscape:document-units="mm"
     inkscape:current-layer="layer2"
     showgrid="false"
     inkscape:pagecheckerboard="true"
     units="px"
     inkscape:window-width="2160"
     inkscape:window-height="1346"
     inkscape:window-x="-11"
     inkscape:window-y="-11"
     inkscape:window-maximized="1" />
  <metadata
     id="metadata5">
    <rdf:RDF>
      <cc:Work
         rdf:about="">
        <dc:format>image/svg+xml</dc:format>
        <dc:type
           rdf:resource="http://purl.org/dc/dcmitype/StillImage" />
        <dc:title />
      </cc:Work>
    </rdf:RDF>
  </metadata>
  <g
     inkscape:label="Transparent Background"
     inkscape:groupmode="layer"
     id="layer1"
     transform="translate(0,-138.24998)"
     sodipodi:insensitive="true"
     style="display:inline" />
  <g
     inkscape:groupmode="layer"
     id="layer2"
     inkscape:label="Blue Background"
     transform="translate(0,146.05)"
     style="display:inline">
    <rect
       style="fill:#0000ff;fill-opacity:1;stroke-width:0.54298115"
       id="rect820"
       width="328.45837"
       height="159.9783"
       x="-0.20736012"
       y="-146.03413" />
  </g>
  <g
     inkscape:groupmode="layer"
     id="layer3"
     inkscape:label="Player"
     style="display:inline"
     transform="translate(0,52.916667)">
    <g
       id="g342"
       transform="matrix(1.9839375,0,0,1.8361785,23.471566,-62.446687)"
       style="display:inline;fill:#f2f2f2">
      <path
         sodipodi:nodetypes="cccccccccccccccccccccccccccccccccccccccccccccccc"
         inkscape:connector-curvature="0"
         d="m 56.423949,12.93268 c -4.343506,2.91e-4 -7.864552,6.549362 -7.864637,14.628048 0.004,5.623983 1.741212,10.745679 4.468461,13.17439 l -0.06763,1.702236 -4.806601,0.879166 c 1.218282,6.450875 1.573007,14.058117 0.270513,19.428661 -1.826657,-2.2503 -6.225257,-2.034963 -7.951859,-1.770039 -1.845601,0.301279 -4.263009,5.669415 -5.667711,12.995606 -1.787327,-1.642732 -3.706399,-6.519318 -7.112514,-6.902992 -3.588223,1.089633 -3.540341,2.393153 -4.224153,3.653633 l 14.310238,8.66924 c 0.730369,-7.078184 3.688381,-10.916552 5.521626,-10.942484 2.001605,0.469895 3.99443,0.612233 6.612189,1.6944 3.883702,1.520446 8.626697,0.792122 10.272313,0.839988 1.974027,2.652255 4.389609,1.797587 4.474982,4.854181 v 0 l -1.041659,7.952163 13.720408,0.06763 c -0.114898,-1.769002 0.479007,-2.3207 -0.811538,-4.089702 -2.054,-2.262846 -6.143165,0.389673 -8.357587,1.014423 2.607466,-4.097306 3.999312,-8.473146 2.488896,-11.454802 -1.596157,-3.057747 -5.64065,-4.394573 -7.533103,-4.927782 -2.548162,0.576341 -1.409811,-11.415454 0.33814,-21.758402 h -4.11086 l -0.06763,-1.45347 c 0.786292,-0.575464 2.802517,-3.27642 3.450693,-4.284655 -9.115081,-1.3424 -10.165527,-4.324696 -9.755841,-6.90468 3.190947,0.951587 5.301666,4.18619 10.984246,2.788814 0.290452,-1.401117 0.260295,-2.877063 0.309229,-4.37596 0.919999,-0.138382 2.047942,0.801161 3.021902,0.409602 3.206049,-1.288902 5.98139,-3.744449 5.531416,-5.150834 -0.450075,-1.406295 -3.68436,-1.230873 -6.890263,0.05812 -0.548664,0.221052 -1.489266,-0.742233 -1.9943,-0.46283 C 62.926917,17.124157 59.877557,12.933201 56.423949,12.93268 Z m 4.389395,5.622913 c 0.641794,-3.97e-4 1.162179,1.121116 1.162203,2.504756 -2.4e-5,1.383641 -0.520409,2.505162 -1.162203,2.504757 -0.641594,-2.13e-4 -1.161661,-1.121553 -1.161685,-2.504757 2.4e-5,-1.383204 0.520091,-2.504544 1.161685,-2.504756 z m -3.405995,1.591117 c 0.641575,3.17e-4 1.161637,1.749518 1.161688,3.907255 3.4e-5,2.157938 -0.520055,3.907443 -1.161688,3.907771 -0.641834,5.29e-4 -1.162235,-1.749159 -1.162201,-3.907771 5.1e-5,-2.158411 0.520425,-3.907882 1.162201,-3.907255 z M 15.58303,46.70788 c -0.513717,3.94244 5.999256,8.272468 14.546916,9.671243 8.547727,1.39885 15.893192,-0.663331 16.406232,-4.605919 z"
         style="display:inline;fill:#f2f2f2;fill-opacity:1;stroke-width:0.0662407"
         id="path464" />
      <path
         inkscape:connector-curvature="0"
         id="path527"
         d="m 91.354116,22.755336 a 2.3886772,5.48268 33.748976 0 0 -4.398698,3.586345 2.3886772,5.48268 33.748976 0 0 -1.400432,3.152778 c -2.572729,0.465752 -5.980263,2.155031 -8.488889,3.624586 -3.939876,2.307984 -11.339811,9.027837 -9.685713,11.23394 1.654101,2.206099 -6.779657,9.018265 11.371916,-6.209439 1.899526,-1.593552 5.185087,-3.158808 7.533391,-4.610574 a 3.151831,1.3283086 27.12112 0 0 1.471745,0.99994 3.151831,1.3283086 27.12112 0 0 3.387905,0.227377 3.151831,1.3283086 27.12112 0 0 -2.234488,-2.621547 3.151831,1.3283086 27.12112 0 0 -0.46922,-0.21704 c 0.237873,-0.250423 0.408625,-0.495607 0.505394,-0.735357 a 2.3886772,5.48268 33.748976 0 0 2.199865,-2.524392 2.3886772,5.48268 33.748976 0 0 0.875916,-5.76399 2.3886772,5.48268 33.748976 0 0 -0.668692,-0.142627 z"
         style="display:inline;opacity:1;fill:#f2f2f2;fill-opacity:1;stroke-width:0.20143983" />
    </g>
  </g>
  <g
     inkscape:groupmode="layer"
     id="layer10"
     inkscape:label="Berries"
     transform="translate(0,52.916667)">
    <path
       style="display:inline;opacity:1;fill:#e6e6e6;fill-opacity:1;stroke-width:0.11047065"
       d="m 253.04367,-25.602436 a 12.972539,18.82196 54.893279 0 0 -10.09807,2.567148 12.972539,18.82196 54.893279 0 0 -12.41685,21.0332974 12.972539,18.82196 54.893279 0 0 20.76811,4.1494463 12.972539,18.82196 54.893279 0 0 12.41688,-21.0332997 12.972539,18.82196 54.893279 0 0 -10.67007,-6.716592 z m 0.71499,10.279006 c 0.0376,3.738561 -0.51367,5.4625019 -0.81069,6.6957389 0.92117,-0.302819 2.28382,-0.589754 5.72553,-0.961007 -3.52213,2.4080872 -4.95684,2.9011349 -6.00383,3.3016808 -8.8e-4,0.948168 0.0758,2.4900089 0.0837,6.12359856 -1.17305,-3.11243186 -2.05361,-3.89966186 -2.27152,-4.99423866 -0.90991,0.5957258 -2.48957,1.7531158 -6.42295,4.41167956 4.19246,-4.12072516 5.32876,-5.81552636 6.69465,-6.81493226 0.28533,-1.104146 0.79037,-2.6033849 3.0052,-7.7625199 z"
       id="path432"
       inkscape:connector-curvature="0" />
  </g>
</svg>
