<?xml version="1.0" encoding="UTF-8" standalone="no"?>
<!-- Created with Inkscape (http://www.inkscape.org/) -->

<svg
   xmlns:dc="http://purl.org/dc/elements/1.1/"
   xmlns:cc="http://creativecommons.org/ns#"
   xmlns:rdf="http://www.w3.org/1999/02/22-rdf-syntax-ns#"
   xmlns:svg="http://www.w3.org/2000/svg"
   xmlns="http://www.w3.org/2000/svg"
   xmlns:sodipodi="http://sodipodi.sourceforge.net/DTD/sodipodi-0.dtd"
   xmlns:inkscape="http://www.inkscape.org/namespaces/inkscape"
   width="400"
   height="400"
   viewBox="0 0 105.83333 105.83333"
   version="1.1"
   id="svg8"
   sodipodi:docname="AssetGeneratorSource400x400.svg"
   inkscape:version="0.92.2 (5c3e80d, 2017-08-06)"
   inkscape:export-filename="C:\Users\Barna\source\repos\Bugs-and-Berries\Bugs-and-Berries-game\Bugs-and-Berries-game\Assets\AssetGeneratorSource400x400.png"
   inkscape:export-xdpi="96"
   inkscape:export-ydpi="96">
  <defs
     id="defs2" />
  <sodipodi:namedview
     id="base"
     pagecolor="#ffffff"
     bordercolor="#666666"
     borderopacity="1.0"
     inkscape:pageopacity="0.0"
     inkscape:pageshadow="2"
     inkscape:zoom="2.5519217"
     inkscape:cx="154.33917"
     inkscape:cy="206.56184"
     inkscape:document-units="mm"
     inkscape:current-layer="layer10"
     showgrid="false"
     inkscape:pagecheckerboard="true"
     units="px"
     inkscape:window-width="2160"
     inkscape:window-height="1346"
     inkscape:window-x="-11"
     inkscape:window-y="-11"
     inkscape:window-maximized="1" />
  <metadata
     id="metadata5">
    <rdf:RDF>
      <cc:Work
         rdf:about="">
        <dc:format>image/svg+xml</dc:format>
        <dc:type
           rdf:resource="http://purl.org/dc/dcmitype/StillImage" />
        <dc:title />
      </cc:Work>
    </rdf:RDF>
  </metadata>
  <g
     inkscape:label="Transparent Background"
     inkscape:groupmode="layer"
     id="layer1"
     transform="translate(0,-191.16665)"
     sodipodi:insensitive="true"
     style="display:inline" />
  <g
     inkscape:groupmode="layer"
     id="layer2"
     inkscape:label="Blue Background"
     transform="translate(0,93.133333)"
     sodipodi:insensitive="true"
     style="display:inline">
    <rect
       style="fill:#0000ff;fill-opacity:1;stroke-width:0.26458332"
       id="rect820"
       width="113.63332"
       height="109.79716"
       x="-5.598722"
       y="-95.852997" />
  </g>
  <g
     inkscape:groupmode="layer"
     id="layer3"
     inkscape:label="Player"
     style="display:inline">
    <g
       id="g183"
       transform="matrix(1.0927488,0,0,1.1622654,65.713649,-8.36472)"
       style="fill:#ececec">
      <path
         inkscape:connector-curvature="0"
         id="path464"
         d="m -20.403202,18.324043 a 7.8649229,14.628332 0 0 0 -7.864636,14.628048 7.8649229,14.628332 0 0 0 4.46846,13.17439 v 3.257682 h -4.46846 V 65.09328 a 9.627485,5.0756868 15.361862 0 0 -5.787761,-0.349848 3.7225563,8.9892669 18.601342 0 0 -0.03669,-0.02585 3.7225563,8.9892669 18.601342 0 0 -6.426484,6.61665 3.7225563,8.9892669 18.601342 0 0 -1.098124,4.375962 l -8.938472,-5.415174 -2.803963,5.817732 14.310237,8.66924 2.308903,-4.78989 a 3.7225563,8.9892669 18.601342 0 0 2.847889,-5.066358 3.7225563,8.9892669 18.601342 0 0 0.364836,-1.086236 9.627485,5.0756868 15.361862 0 0 3.446817,1.268137 9.627485,5.0756868 15.361862 0 0 1.812812,0.358635 v 0.569476 h 12.909806 a 8.9869984,4.1251465 64.003927 0 0 0.687811,1.472777 8.9869984,4.1251465 64.003927 0 0 0.221176,0.407728 4.5580795,10.720765 0 0 0 -0.406175,4.131014 h -0.721405 v 7.200593 H 0.51076587 V 82.047275 H -5.7503491 a 4.5580795,10.720765 0 0 0 -0.06615,-1.569929 8.9869984,4.1251465 64.003927 0 0 -1.908413,-7.51789 8.9869984,4.1251465 64.003927 0 0 -5.7071449,-5.874575 V 49.384163 h -4.11086 v -2.80603 a 7.8649229,14.628332 0 0 0 2.16576,-2.391069 18.84813,7.3830619 11.927024 0 1 -8.06514,-8.121986 l 10.375593,2.112534 a 7.8649229,14.628332 0 0 0 0.512114,-4.37596 2.6649423,6.2600644 67.17382 0 0 2.8866459,-0.807704 2.6649423,6.2600644 67.17382 0 0 4.990391,-4.880322 2.6649423,6.2600644 67.17382 0 0 -6.6197499,-0.21239 2.6649423,6.2600644 67.17382 0 0 -1.588528,0.754476 7.8649229,14.628332 0 0 0 -7.517371,-10.331669 z m 4.389395,5.622912 a 1.1618636,2.5048516 0 0 1 1.162204,2.504757 1.1618636,2.5048516 0 0 1 -1.162204,2.504757 1.1618636,2.5048516 0 0 1 -1.161685,-2.504757 1.1618636,2.5048516 0 0 1 1.161685,-2.504757 z m -3.405994,1.591118 a 1.1618636,3.9075683 0 0 1 1.161687,3.907255 1.1618636,3.9075683 0 0 1 -1.161687,3.907771 1.1618636,3.9075683 0 0 1 -1.162201,-3.907771 1.1618636,3.9075683 0 0 1 1.162201,-3.907255 z m -41.824321,26.56117 a 15.684551,7.193698 9.7935415 0 0 14.546915,9.671243 15.684551,7.193698 9.7935415 0 0 16.406235,-4.605919 z"
         style="display:inline;fill:#ececec;fill-opacity:1;stroke-width:0.0662407" />
      <path
         inkscape:connector-curvature="0"
         id="path527"
         d="m 14.526965,28.146699 a 2.3886772,5.48268 33.748976 0 0 -4.398698,3.586345 2.3886772,5.48268 33.748976 0 0 -1.4004311,3.152778 c -2.572729,0.465752 -5.980264,2.155031 -8.48888903,3.624586 -3.93987597,2.307984 -11.33981187,9.027837 -9.68571297,11.23394 1.6541,2.206099 -6.7796569,9.018265 11.371916,-6.209439 1.899525,-1.593552 5.185087,-3.158808 7.533391,-4.610574 a 3.151831,1.3283086 27.12112 0 0 1.4717451,0.99994 3.151831,1.3283086 27.12112 0 0 3.387905,0.227377 3.151831,1.3283086 27.12112 0 0 -2.234489,-2.621547 3.151831,1.3283086 27.12112 0 0 -0.46922,-0.21704 c 0.237874,-0.250423 0.408625,-0.495607 0.505394,-0.735357 a 2.3886772,5.48268 33.748976 0 0 2.199865,-2.524392 2.3886772,5.48268 33.748976 0 0 0.875916,-5.76399 2.3886772,5.48268 33.748976 0 0 -0.668692,-0.142627 z"
         style="display:inline;opacity:1;fill:#ececec;fill-opacity:1;stroke-width:0.20143983" />
    </g>
  </g>
  <g
     inkscape:groupmode="layer"
     id="layer10"
     inkscape:label="Berries">
    <path
       style="display:inline;opacity:1;fill:#e6e6e6;fill-opacity:1;stroke-width:0.04026543"
       d="m 96.965515,20.845809 a 4.777748,6.7894936 46.223007 0 0 -3.489493,0.986954 4.777748,6.7894936 46.223007 0 0 -4.290787,8.086363 4.777748,6.7894936 46.223007 0 0 7.176651,1.595277 4.777748,6.7894936 46.223007 0 0 4.290794,-8.086364 4.777748,6.7894936 46.223007 0 0 -3.687165,-2.58223 z m 0.247077,3.951819 c 0.01299,1.43731 -0.177501,2.100088 -0.280147,2.574212 0.318325,-0.11642 0.7892,-0.226734 1.978522,-0.369464 -1.217112,0.925802 -1.712892,1.115357 -2.074693,1.269349 -4.35e-4,0.364528 0.02618,0.957297 0.0289,2.35425 -0.40536,-1.196591 -0.70965,-1.499246 -0.784948,-1.920062 -0.314433,0.22903 -0.860302,0.673995 -2.219514,1.696094 1.448741,-1.584235 1.841409,-2.23581 2.313405,-2.620037 0.09861,-0.424495 0.27312,-1.000885 1.038485,-2.984342 z"
       id="path432"
       inkscape:connector-curvature="0" />
  </g>
</svg>
