<?xml version="1.0" encoding="UTF-8" standalone="no"?>
<!-- Created with Inkscape (http://www.inkscape.org/) -->

<svg
   xmlns:dc="http://purl.org/dc/elements/1.1/"
   xmlns:cc="http://creativecommons.org/ns#"
   xmlns:rdf="http://www.w3.org/1999/02/22-rdf-syntax-ns#"
   xmlns:svg="http://www.w3.org/2000/svg"
   xmlns="http://www.w3.org/2000/svg"
   xmlns:sodipodi="http://sodipodi.sourceforge.net/DTD/sodipodi-0.dtd"
   xmlns:inkscape="http://www.inkscape.org/namespaces/inkscape"
   width="600"
   height="400"
   viewBox="0 0 158.75 105.83334"
   version="1.1"
   id="svg8"
   inkscape:version="0.92.2 (5c3e80d, 2017-08-06)"
   sodipodi:docname="BackgroundTile_AllTypes.svg"
   inkscape:export-filename="C:\Users\Barna\source\repos\Bugs-and-Berries\inkscape files\BGTile_S.png"
   inkscape:export-xdpi="96"
   inkscape:export-ydpi="96">
  <defs
     id="defs2" />
  <sodipodi:namedview
     id="base"
     pagecolor="#ffffff"
     bordercolor="#666666"
     borderopacity="1.0"
     inkscape:pageopacity="0.0"
     inkscape:pageshadow="2"
     inkscape:zoom="0.69160856"
     inkscape:cx="-271.79993"
     inkscape:cy="135.24356"
     inkscape:document-units="mm"
     inkscape:current-layer="layer11"
     showgrid="false"
     units="px"
     inkscape:pagecheckerboard="true"
     inkscape:window-width="2160"
     inkscape:window-height="1346"
     inkscape:window-x="-11"
     inkscape:window-y="-11"
     inkscape:window-maximized="1" />
  <metadata
     id="metadata5">
    <rdf:RDF>
      <cc:Work
         rdf:about="">
        <dc:format>image/svg+xml</dc:format>
        <dc:type
           rdf:resource="http://purl.org/dc/dcmitype/StillImage" />
        <dc:title />
      </cc:Work>
    </rdf:RDF>
  </metadata>
  <g
     inkscape:label="BG"
     inkscape:groupmode="layer"
     id="layer1"
     transform="translate(0,-191.16665)"
     sodipodi:insensitive="true" />
  <g
     inkscape:groupmode="layer"
     id="layer3"
     inkscape:label="Road_E"
     style="display:none;opacity:0.6"
     sodipodi:insensitive="true">
    <rect
       y="62.895248"
       x="83.885956"
       height="23.434523"
       width="78.795067"
       id="rect4522"
       style="fill:#aa4400;fill-opacity:1;stroke-width:0.25411221" />
  </g>
  <g
     inkscape:groupmode="layer"
     id="layer4"
     inkscape:label="Road_W"
     style="display:none;opacity:0.6"
     sodipodi:insensitive="true">
    <rect
       style="fill:#aa4400;fill-opacity:1;stroke-width:0.13004011"
       id="rect4518"
       width="20.634911"
       height="23.434523"
       x="-7.7196069"
       y="62.895248" />
  </g>
  <g
     inkscape:groupmode="layer"
     id="layer2"
     inkscape:label="Road_S"
     style="display:none;opacity:0.6">
    <rect
       y="95.026939"
       x="27.214287"
       height="12.62329"
       width="40.065475"
       id="rect81"
       style="display:inline;opacity:1;fill:#aa4400;fill-opacity:1;stroke-width:0.08712468" />
  </g>
  <g
     inkscape:groupmode="layer"
     id="layer5"
     inkscape:label="Road_N"
     style="display:none;opacity:0.6">
    <rect
       style="fill:#aa4400;fill-opacity:1;stroke-width:0.20472725"
       id="rect4513"
       width="40.065475"
       height="69.701401"
       x="27.214287"
       y="-14.967847" />
  </g>
  <g
     inkscape:groupmode="layer"
     id="layer7"
     inkscape:label="Road_Center"
     style="display:none;opacity:0.6"
     sodipodi:insensitive="true">
    <rect
       style="fill:#aa4400;fill-opacity:1;stroke-width:0.26458332"
       id="rect4516"
       width="71.059525"
       height="40.82143"
       x="12.851191"
       y="54.579777" />
  </g>
  <g
     inkscape:groupmode="layer"
     id="layer6"
     inkscape:label="Bush"
     style="display:none;opacity:0.6"
     sodipodi:insensitive="true">
    <rect
       style="fill:#800000;fill-opacity:1;stroke-width:0.26458332"
       id="rect44"
       width="15.119047"
       height="24.946428"
       x="115.66072"
       y="30.994047" />
    <ellipse
       style="fill:#008000;fill-opacity:1;stroke-width:0.26458332"
       id="path42"
       cx="124.35415"
       cy="25.702379"
       rx="29.860117"
       ry="18.898809" />
  </g>
  <g
     inkscape:groupmode="layer"
     id="layer15"
     inkscape:label="Bug Shadow"
     style="display:none;opacity:0.5"
     sodipodi:insensitive="true">
    <g
       style="display:inline"
       id="g688"
       transform="translate(1.0820495,1.2173057)">
      <g
         id="g684">
        <path
           sodipodi:nodetypes="ccccc"
           inkscape:connector-curvature="0"
           id="path670"
           d="m 141.57087,34.051883 2.98945,1.221078 -2.98945,17.48069 v 0 z"
           style="opacity:1;fill:#1a1a1a;fill-opacity:1;stroke-width:0.04625541" />
        <g
           style="fill:#1a1a1a"
           transform="matrix(0.46061857,0,0,0.48601971,107.64845,3.3373075)"
           id="g678">
          <path
             id="path672"
             d="M 53.672619,45.546127 A 21.733631,13.79613 0 0 1 31.938988,59.342257 21.733631,13.79613 0 0 1 10.205357,45.546127 21.733631,13.79613 0 0 1 31.938988,31.749997 21.733631,13.79613 0 0 1 53.672619,45.546127 Z"
             style="opacity:1;fill:#1a1a1a;fill-opacity:1;stroke-width:0.26458332"
             inkscape:connector-curvature="0" />
          <g
             style="fill:#1a1a1a"
             id="g676">
            <path
               id="path674"
               d="M 89.040298,27.285629 A 23.968445,18.735884 0 0 1 65.071854,46.021513 23.968445,18.735884 0 0 1 41.103409,27.285629 23.968445,18.735884 0 0 1 65.071854,8.5497456 23.968445,18.735884 0 0 1 89.040298,27.285629 Z"
               style="fill:#1a1a1a;fill-opacity:1;stroke-width:0.23452972"
               transform="matrix(0.95629116,0.29241617,-0.28295771,0.95913239,0,0)"
               inkscape:connector-curvature="0" />
          </g>
        </g>
        <path
           id="path680"
           d="m 144.32739,41.972071 a 7.8445927,6.4263623 47.412293 0 1 -9.80153,-4.197948 7.8445927,6.4263623 47.412293 0 1 2.25023,-9.322835 7.8445927,6.4263623 47.412293 0 1 9.80153,4.197949 7.8445927,6.4263623 47.412293 0 1 -2.25023,9.322834 z"
           style="fill:#1a1a1a;fill-opacity:1;stroke-width:0.07857939"
           inkscape:connector-curvature="0" />
        <path
           style="fill:#1a1a1a;fill-opacity:1;stroke-width:0.07765546"
           d="m 124.08419,5.6365373 c 1.90653,-0.3647624 4.54233,0.8270048 7.36853,5.3063557 2.81974,4.469094 5.04634,10.970464 5.33456,14.804175 -0.38328,-3.228361 -2.31155,-8.259897 -4.7526,-11.750473 -3.50393,-5.0104463 -6.73647,-4.9470401 -8.39951,-3.478334 -1.40464,1.240505 -2.94165,3.511168 -1.27415,7.205797 -3.75695,-6.031911 -1.80491,-9.451291 -0.0339,-11.1626595 0.47324,-0.4573032 1.06742,-0.7929265 1.75702,-0.9248612 z m 9.29558,22.6705887 c 0.99083,0.458288 1.83604,0.680111 2.41948,0.585336 -0.57352,0.136245 -1.41718,-0.0881 -2.41948,-0.585336 z"
           id="path682"
           inkscape:connector-curvature="0" />
      </g>
      <path
         style="fill:#1a1a1a;fill-opacity:1;stroke-width:0.1003105"
         d="m 150.17405,7.4101797 c -2.38882,-0.7925097 -5.95306,0.2836883 -10.26871,5.5372323 -4.30578,5.241514 -8.16444,13.186652 -9.12557,18.046635 0.98965,-4.068586 4.23892,-10.182486 7.90807,-14.235614 5.26677,-5.817947 9.40266,-5.185003 11.30887,-3.020425 1.61003,1.828256 3.23087,4.998252 0.5223,9.444712 5.74887,-7.082776 3.77298,-11.794578 1.76569,-14.288329 -0.53638,-0.6663674 -1.24662,-1.1975608 -2.11065,-1.4842113 z M 134.75484,34.853891 c -1.34143,0.417731 -2.45962,0.557514 -3.19325,0.336567 0.71452,0.27236 1.83111,0.129077 3.19325,-0.336567 z"
         id="path686"
         inkscape:connector-curvature="0" />
    </g>
  </g>
  <g
     inkscape:groupmode="layer"
     id="layer8"
     inkscape:label="Bug"
     style="display:none"
     sodipodi:insensitive="true">
    <g
       id="g668">
      <g
         id="g657">
        <path
           style="opacity:1;fill:#1a1a1a;fill-opacity:1;stroke-width:0.04625541"
           d="m 141.57087,34.051883 2.98945,1.221078 -2.98945,17.48069 v 0 z"
           id="rect213"
           inkscape:connector-curvature="0"
           sodipodi:nodetypes="ccccc" />
        <g
           id="g246"
           transform="matrix(0.46061857,0,0,0.48601971,107.64845,3.3373075)"
           style="fill:#1a1a1a">
          <path
             inkscape:connector-curvature="0"
             style="opacity:1;fill:#1a1a1a;fill-opacity:1;stroke-width:0.26458332"
             d="M 53.672619,45.546127 A 21.733631,13.79613 0 0 1 31.938988,59.342257 21.733631,13.79613 0 0 1 10.205357,45.546127 21.733631,13.79613 0 0 1 31.938988,31.749997 21.733631,13.79613 0 0 1 53.672619,45.546127 Z"
             id="path237" />
          <g
             id="g240"
             style="fill:#1a1a1a">
            <path
               inkscape:connector-curvature="0"
               transform="matrix(0.95629116,0.29241617,-0.28295771,0.95913239,0,0)"
               style="fill:#1a1a1a;fill-opacity:1;stroke-width:0.23452972"
               d="M 89.040298,27.285629 A 23.968445,18.735884 0 0 1 65.071854,46.021513 23.968445,18.735884 0 0 1 41.103409,27.285629 23.968445,18.735884 0 0 1 65.071854,8.5497456 23.968445,18.735884 0 0 1 89.040298,27.285629 Z"
               id="path209" />
          </g>
        </g>
        <path
           inkscape:connector-curvature="0"
           style="fill:#1a1a1a;fill-opacity:1;stroke-width:0.07857939"
           d="m 144.32739,41.972071 a 7.8445927,6.4263623 47.412293 0 1 -9.80153,-4.197948 7.8445927,6.4263623 47.412293 0 1 2.25023,-9.322835 7.8445927,6.4263623 47.412293 0 1 9.80153,4.197949 7.8445927,6.4263623 47.412293 0 1 -2.25023,9.322834 z"
           id="ellipse211" />
        <path
           inkscape:connector-curvature="0"
           id="path265"
           d="m 124.08419,5.6365373 c 1.90653,-0.3647624 4.54233,0.8270048 7.36853,5.3063557 2.81974,4.469094 5.04634,10.970464 5.33456,14.804175 -0.38328,-3.228361 -2.31155,-8.259897 -4.7526,-11.750473 -3.50393,-5.0104463 -6.73647,-4.9470401 -8.39951,-3.478334 -1.40464,1.240505 -2.94165,3.511168 -1.27415,7.205797 -3.75695,-6.031911 -1.80491,-9.451291 -0.0339,-11.1626595 0.47324,-0.4573032 1.06742,-0.7929265 1.75702,-0.9248612 z m 9.29558,22.6705887 c 0.99083,0.458288 1.83604,0.680111 2.41948,0.585336 -0.57352,0.136245 -1.41718,-0.0881 -2.41948,-0.585336 z"
           style="fill:#1a1a1a;fill-opacity:1;stroke-width:0.07765546" />
      </g>
      <path
         inkscape:connector-curvature="0"
         id="path259"
         d="m 150.17405,7.4101797 c -2.38882,-0.7925097 -5.95306,0.2836883 -10.26871,5.5372323 -4.30578,5.241514 -8.16444,13.186652 -9.12557,18.046635 0.98965,-4.068586 4.23892,-10.182486 7.90807,-14.235614 5.26677,-5.817947 9.40266,-5.185003 11.30887,-3.020425 1.61003,1.828256 3.23087,4.998252 0.5223,9.444712 5.74887,-7.082776 3.77298,-11.794578 1.76569,-14.288329 -0.53638,-0.6663674 -1.24662,-1.1975608 -2.11065,-1.4842113 z M 134.75484,34.853891 c -1.34143,0.417731 -2.45962,0.557514 -3.19325,0.336567 0.71452,0.27236 1.83111,0.129077 3.19325,-0.336567 z"
         style="fill:#1a1a1a;fill-opacity:1;stroke-width:0.1003105" />
    </g>
    <g
       id="g257"
       transform="matrix(0.46061857,0,0,0.48601971,2.4903314,-4.0108483)"
       style="fill:#e6e6e6">
      <path
         inkscape:connector-curvature="0"
         id="path248"
         d="m 257.55618,65.814988 a 5.6946279,9.4446769 26.617956 0 0 8.2392,-4.50302 5.6946279,9.4446769 26.617956 0 0 1.65501,-10.768563 z"
         style="fill:#e6e6e6;fill-opacity:1;stroke-width:0.11264347" />
      <path
         style="fill:#e6e6e6;fill-opacity:1;stroke-width:0.08380026"
         d="m 250.50133,66.314278 a 7.0006061,4.252022 54.55319 0 1 -6.58813,-2.4827 7.0006061,4.252022 54.55319 0 1 -2.30519,-7.6961 z"
         id="path253"
         inkscape:connector-curvature="0" />
    </g>
  </g>
  <g
     inkscape:groupmode="layer"
     id="layer16"
     inkscape:label="Berry Shadow"
     style="display:none;opacity:0.5"
     sodipodi:insensitive="true">
    <ellipse
       transform="matrix(0.93613654,-0.35163672,0.4097568,0.91219481,0,0)"
       ry="4.787375"
       rx="8.326767"
       cy="52.386181"
       cx="85.76136"
       id="ellipse705"
       style="display:inline;opacity:1;fill:#000000;fill-opacity:1;stroke-width:0.04463637" />
  </g>
  <g
     inkscape:groupmode="layer"
     id="layer9"
     inkscape:label="Berry"
     style="display:none">
    <ellipse
       style="display:inline;opacity:1;fill:#000000;fill-opacity:1;stroke-width:0.04463637"
       id="path432"
       cx="85.161087"
       cy="51.116856"
       rx="8.326767"
       ry="4.787375"
       transform="matrix(0.93613654,-0.35163672,0.4097568,0.91219481,0,0)" />
    <g
       id="g207"
       transform="matrix(0.16755187,-0.13489673,0.14304683,0.15800559,52.777918,42.43519)"
       style="display:inline;fill:#e6e6e6">
      <path
         sodipodi:nodetypes="ccccc"
         inkscape:connector-curvature="0"
         id="path196"
         d="m 250.18806,60.278751 c 1.63604,-1.724524 4.76963,-2.167956 10.04913,-8.515181 -10.70785,4.061705 -12.31624,5.040464 -14.11817,6.1995 -3.9539,2.557835 -1.82463,3.624147 -3.94398,11.655474 6.0659,-7.145121 6.61137,-8.436314 8.01302,-9.339793 z"
         style="fill:#e6e6e6;fill-opacity:1;stroke-width:0.11566541" />
      <path
         style="fill:#e6e6e6;fill-opacity:1;stroke-width:0.11566541"
         d="m 246.04281,60.762915 c 3.20942,0.810231 4.17711,2.512265 15.95067,5.085803 -7.91896,-5.682325 -9.77618,-6.5165 -11.97009,-7.447755 -4.84046,-2.042656 -6.65999,-0.814316 -21.31791,-1.559497 13.26002,2.964626 15.62731,3.19716 17.33733,3.921449 z"
         id="path202"
         inkscape:connector-curvature="0"
         sodipodi:nodetypes="ccccc" />
    </g>
  </g>
  <g
     inkscape:groupmode="layer"
     id="layer17"
     inkscape:label="Player Shadow"
     style="display:inline;opacity:0.5"
     sodipodi:insensitive="true">
    <path
       sodipodi:nodetypes="cccccccccccccccccccccccccccccccccccccccccccccccc"
       inkscape:connector-curvature="0"
       d="m 49.510102,13.12448 c -4.343506,2.91e-4 -7.864552,6.549363 -7.864637,14.628048 0.004,5.623984 1.741213,10.745679 4.468461,13.17439 l -0.06763,1.702237 -4.8066,0.879165 c 1.218282,6.450875 1.573006,14.058117 0.270512,19.428661 -1.826657,-2.2503 -6.225256,-2.034963 -7.951859,-1.770039 -1.845601,0.301279 -4.263008,5.669415 -5.66771,12.995606 -1.787328,-1.642732 -3.7064,-6.519318 -7.112515,-6.902992 -3.588223,1.089633 -3.540341,2.393153 -4.224153,3.653633 l 14.310238,8.66924 c 0.730369,-7.078184 3.688381,-10.916552 5.521626,-10.942484 2.001605,0.469895 3.994431,0.612233 6.612189,1.6944 3.883702,1.520446 8.626697,0.792122 10.272313,0.839988 1.974027,2.652255 4.389609,1.797587 4.474982,4.854181 v 0 l -1.041659,7.952163 13.720408,0.06763 c -0.114898,-1.769001 0.479007,-2.3207 -0.811538,-4.089701 -2.054,-2.262846 -6.143165,0.389673 -8.357587,1.014423 2.607466,-4.097306 3.999312,-8.473146 2.488896,-11.454802 -1.596157,-3.057747 -5.64065,-4.394573 -7.533103,-4.927782 -2.548162,0.576341 -1.409811,-11.415454 0.33814,-21.758402 h -4.11086 l -0.06763,-1.45347 c 0.786292,-0.575464 2.802517,-3.27642 3.450693,-4.284655 -9.11508,-1.3424 -10.165527,-4.324696 -9.75584,-6.90468 3.190946,0.951587 5.301665,4.18619 10.984245,2.788814 0.290452,-1.401117 0.260295,-2.877063 0.309229,-4.375959 0.919999,-0.138383 2.047942,0.80116 3.021902,0.409601 3.206049,-1.288902 5.98139,-3.744449 5.531416,-5.150834 -0.450075,-1.406295 -3.68436,-1.230873 -6.890263,0.05812 -0.548664,0.221052 -1.489266,-0.742232 -1.9943,-0.462829 -1.014402,-6.140192 -4.063762,-10.331149 -7.51737,-10.33167 z m 4.389395,5.622913 c 0.641794,-3.97e-4 1.162179,1.121116 1.162203,2.504757 -2.4e-5,1.38364 -0.520409,2.505161 -1.162203,2.504756 -0.641594,-2.13e-4 -1.161661,-1.121553 -1.161685,-2.504756 2.4e-5,-1.383204 0.520091,-2.504544 1.161685,-2.504757 z m -3.405995,1.591117 c 0.641575,3.18e-4 1.161638,1.749518 1.161688,3.907255 3.4e-5,2.157938 -0.520055,3.907443 -1.161688,3.907771 -0.641834,5.29e-4 -1.162235,-1.749158 -1.1622,-3.907771 5e-5,-2.158411 0.520424,-3.907881 1.1622,-3.907255 z M 8.669183,46.89968 c -0.513717,3.94244 5.999256,8.272468 14.546916,9.671243 8.547727,1.39885 15.893192,-0.663331 16.406233,-4.605919 z"
       style="display:inline;fill:#000000;fill-opacity:1;stroke-width:0.0662407"
       id="path251" />
  </g>
  <g
     inkscape:groupmode="layer"
     id="layer10"
     inkscape:label="Player"
     style="display:inline">
    <path
       id="path464"
       transform="scale(0.26458333)"
       style="fill:#000000;fill-opacity:1;stroke-width:0.25035855"
       d="m 183.03516,46.537109 c -16.4164,0.0011 -29.72429,24.753496 -29.72461,55.287111 0.0153,21.256 6.58096,40.61359 16.88867,49.79297 l -0.2556,6.43365 -18.16668,3.32283 c 4.60453,24.38126 5.94522,53.13304 1.02241,73.43116 -6.9039,-8.50507 -23.52853,-7.6912 -30.05427,-6.68991 -6.9755,1.13869 -16.11216,21.42771 -21.42127,49.11725 -6.755254,-6.20875 -14.00844,-24.63994 -26.881944,-26.09005 -13.561788,4.1183 -13.380818,9.04499 -15.965304,13.80901 l 54.085938,32.76563 c 2.76045,-26.75219 13.94034,-41.25941 20.86914,-41.35742 7.56512,1.77598 15.09706,2.31395 24.99095,6.40403 14.67856,5.74657 32.60484,2.99385 38.82449,3.17476 7.46089,10.02427 16.59065,6.79403 16.91332,18.34651 v 0 l -3.93698,30.05542 51.85666,0.2556 c -0.43426,-6.68599 1.81042,-8.77115 -3.06723,-15.45714 -7.76315,-8.55249 -23.21826,1.47278 -31.58773,3.83404 9.85499,-15.48588 15.11551,-32.02449 9.40685,-43.29374 -6.03272,-11.55684 -21.31899,-16.60941 -28.47157,-18.62469 -9.63085,2.1783 -5.32842,-43.14502 1.27801,-82.23648 H 194.1013 l -0.2556,-5.49343 c 2.97181,-2.17498 10.59219,-12.38332 13.04199,-16.19397 -34.4507,-5.07364 -38.42089,-16.34531 -36.87247,-26.09643 12.06027,3.59655 20.03779,15.82182 41.51526,10.5404 1.09777,-5.29556 0.98379,-10.87394 1.16874,-16.53906 3.47716,-0.52302 7.74025,3.02801 11.42136,1.5481 12.11735,-4.87144 22.60683,-14.152248 20.90614,-19.46772 -1.70107,-5.31513 -13.92514,-4.652118 -26.04194,0.219675 -2.07369,0.835473 -5.62872,-2.805288 -7.53751,-1.749277 -3.83396,-23.207025 -15.3591,-39.046861 -28.41211,-39.048829 z M 199.625,67.789062 c 2.42568,-0.0015 4.39249,4.23729 4.39258,9.466797 -9e-5,5.229507 -1.9669,9.468327 -4.39258,9.466797 -2.42492,-8.04e-4 -4.39053,-4.23894 -4.39062,-9.466797 9e-5,-5.227857 1.9657,-9.465993 4.39062,-9.466797 z m -12.87305,6.013672 c 2.42485,0.0012 4.39044,6.612352 4.39063,14.767578 1.3e-4,8.155987 -1.96556,14.768288 -4.39063,14.769528 -2.42583,0.002 -4.3927,-6.610993 -4.39257,-14.769528 1.9e-4,-8.157774 1.96696,-14.769946 4.39257,-14.767578 z M 28.675781,174.19141 c -1.941609,14.90056 22.674353,31.26602 54.980469,36.55273 32.30637,5.28699 60.06876,-2.50708 62.00781,-17.4082 z"
       inkscape:connector-curvature="0"
       sodipodi:nodetypes="cccccccccccccccccccccccccccccccccccccccccccccccc" />
  </g>
  <g
     inkscape:groupmode="layer"
     id="layer18"
     inkscape:label="Hand_Extended Shadow"
     style="display:inline;opacity:0.5"
     sodipodi:insensitive="true">
    <path
       inkscape:connector-curvature="0"
       id="path713"
       d="m 84.0345,22.947137 a 2.3886772,5.4826799 33.748976 0 0 -4.398698,3.586344 2.3886772,5.4826799 33.748976 0 0 -1.400432,3.152778 c -2.572728,0.465752 -5.980263,2.155032 -8.488888,3.624586 -3.939876,2.307984 -11.339812,9.027837 -9.685714,11.233941 1.654101,2.206098 -6.779656,9.018264 11.371916,-6.20944 1.899526,-1.593551 5.185087,-3.158808 7.533392,-4.610574 a 3.1518309,1.3283086 27.12112 0 0 1.471744,0.99994 3.1518309,1.3283086 27.12112 0 0 3.387905,0.227377 3.1518309,1.3283086 27.12112 0 0 -2.234488,-2.621547 3.1518309,1.3283086 27.12112 0 0 -0.46922,-0.21704 c 0.237874,-0.250423 0.408625,-0.495607 0.505394,-0.735357 a 2.3886772,5.4826799 33.748976 0 0 2.199865,-2.524392 2.3886772,5.4826799 33.748976 0 0 0.875916,-5.763989 2.3886772,5.4826799 33.748976 0 0 -0.668692,-0.142627 z"
       style="display:inline;fill:#000000;fill-opacity:1;stroke-width:0.20143981" />
  </g>
  <g
     inkscape:groupmode="layer"
     id="layer11"
     inkscape:label="Hand_Extended"
     style="display:inline;opacity:1">
    <path
       style="fill:#000000;fill-opacity:1;stroke-width:0.76134735"
       d="m 315.05469,83.662109 a 9.0280713,20.72194 33.748976 0 0 -16.625,13.554688 9.0280713,20.72194 33.748976 0 0 -5.29297,11.916013 c -9.7237,1.76032 -22.60257,8.145 -32.08399,13.69922 -14.89087,8.72309 -42.85913,34.12096 -36.60742,42.45899 6.25172,8.33801 -25.6239,34.08478 42.98047,-23.46875 7.17931,-6.02287 19.59718,-11.9388 28.47266,-17.42579 a 11.912432,5.020379 27.12112 0 0 5.5625,3.7793 11.912432,5.020379 27.12112 0 0 12.80468,0.85938 11.912432,5.020379 27.12112 0 0 -8.44531,-9.90821 11.912432,5.020379 27.12112 0 0 -1.77343,-0.82031 c 0.89905,-0.94648 1.54441,-1.87316 1.91015,-2.7793 a 9.0280713,20.72194 33.748976 0 0 8.31445,-9.54101 9.0280713,20.72194 33.748976 0 0 3.31055,-21.785158 9.0280713,20.72194 33.748976 0 0 -2.52734,-0.539063 z"
       id="path527"
       inkscape:connector-curvature="0"
       transform="scale(0.26458333)" />
  </g>
  <g
     inkscape:groupmode="layer"
     id="layer19"
     inkscape:label="Hand_Back Shadow"
     style="display:none;opacity:0.5"
     sodipodi:insensitive="true">
    <g
       style="display:inline"
       transform="matrix(1,0,0,-1,0.16907098,83.54559)"
       id="g247">
      <path
         sodipodi:nodetypes="ccccccccccccccccc"
         inkscape:connector-curvature="0"
         id="path244"
         transform="matrix(0.26458333,0,0,-0.26458333,0.98060659,82.463541)"
         d="m 61.810547,131.44727 c -5.301939,-2.66193 -3.753906,2.16992 -3.753906,2.16992 l 0.93367,6.07305 c 6.059718,10.46959 8.955023,13.59791 7.568283,14.39179 -1.14108,0.6488 -4.46839,-5.21564 -10.59375,-12.72656 -1.908755,7.45308 1.812303,9.82034 4.652344,14.72851 4.222282,7.29154 10.334802,12.5577 15.558593,13.4043 -0.117654,0.37518 -0.156815,0.7433 -0.117187,1.10156 0.552278,4.15609 26.890216,13.93175 39.751046,12.21775 12.42411,0.50351 38.97299,4.93816 34.30559,-15.63767 -24.88042,-0.92129 -25.15578,6.80946 -35.80025,5.95649 -5.14638,0.68934 -26.046059,-11.2537 -29.979042,-9.69282 1.083787,-4.99721 -0.560935,-12.06907 -4.320313,-18.57617 -2.841105,-4.90538 -3.922654,-4.39923 -7.767348,-6.76439 0.30797,6.56949 4.204342,10.25933 3.070082,10.92064 -1.385842,0.79255 -2.558287,-1.67404 -8.612307,-12.1343 z"
         style="fill:#000000;fill-opacity:1;stroke-width:1.17322505" />
    </g>
  </g>
  <g
     inkscape:groupmode="layer"
     id="layer12"
     inkscape:label="Hand_Back"
     style="display:none"
     sodipodi:insensitive="true">
    <g
       id="g720"
       transform="matrix(1,0,0,-1,-0.98060659,82.463541)">
      <path
         style="fill:#000000;fill-opacity:1;stroke-width:1.17322505"
         d="m 61.810547,131.44727 c -5.301939,-2.66193 -3.753906,2.16992 -3.753906,2.16992 l 0.93367,6.07305 c 6.059718,10.46959 8.955023,13.59791 7.568283,14.39179 -1.14108,0.6488 -4.46839,-5.21564 -10.59375,-12.72656 -1.908755,7.45308 1.812303,9.82034 4.652344,14.72851 4.222282,7.29154 10.334802,12.5577 15.558593,13.4043 -0.117654,0.37518 -0.156815,0.7433 -0.117187,1.10156 0.552278,4.15609 26.890216,13.93175 39.751046,12.21775 12.42411,0.50351 38.97299,4.93816 34.30559,-15.63767 -24.88042,-0.92129 -25.15578,6.80946 -35.80025,5.95649 -5.14638,0.68934 -26.046059,-11.2537 -29.979042,-9.69282 1.083787,-4.99721 -0.560935,-12.06907 -4.320313,-18.57617 -2.841105,-4.90538 -3.922654,-4.39923 -7.767348,-6.76439 0.30797,6.56949 4.204342,10.25933 3.070082,10.92064 -1.385842,0.79255 -2.558287,-1.67404 -8.612307,-12.1343 z"
         transform="matrix(0.26458333,0,0,-0.26458333,0.98060659,82.463541)"
         id="path537"
         inkscape:connector-curvature="0"
         sodipodi:nodetypes="ccccccccccccccccc" />
    </g>
  </g>
</svg>
