<?xml version="1.0" encoding="UTF-8" standalone="no"?>
<!-- Created with Inkscape (http://www.inkscape.org/) -->

<svg
   xmlns:dc="http://purl.org/dc/elements/1.1/"
   xmlns:cc="http://creativecommons.org/ns#"
   xmlns:rdf="http://www.w3.org/1999/02/22-rdf-syntax-ns#"
   xmlns:svg="http://www.w3.org/2000/svg"
   xmlns="http://www.w3.org/2000/svg"
   xmlns:sodipodi="http://sodipodi.sourceforge.net/DTD/sodipodi-0.dtd"
   xmlns:inkscape="http://www.inkscape.org/namespaces/inkscape"
   width="600"
   height="400"
   viewBox="0 0 158.75 105.83334"
   version="1.1"
   id="svg8"
   inkscape:version="0.92.2 (5c3e80d, 2017-08-06)"
   sodipodi:docname="BackgroundTile_AllTypes.svg"
   inkscape:export-filename="C:\Users\Barna\source\repos\Bugs-and-Berries\inkscape files\PlayerIdle.png"
   inkscape:export-xdpi="96"
   inkscape:export-ydpi="96">
  <defs
     id="defs2" />
  <sodipodi:namedview
     id="base"
     pagecolor="#ffffff"
     bordercolor="#666666"
     borderopacity="1.0"
     inkscape:pageopacity="0.0"
     inkscape:pageshadow="2"
     inkscape:zoom="1.9561644"
     inkscape:cx="314.93585"
     inkscape:cy="219.97536"
     inkscape:document-units="mm"
     inkscape:current-layer="layer19"
     showgrid="false"
     units="px"
     inkscape:pagecheckerboard="true"
     inkscape:window-width="2160"
     inkscape:window-height="1346"
     inkscape:window-x="-11"
     inkscape:window-y="-11"
     inkscape:window-maximized="1" />
  <metadata
     id="metadata5">
    <rdf:RDF>
      <cc:Work
         rdf:about="">
        <dc:format>image/svg+xml</dc:format>
        <dc:type
           rdf:resource="http://purl.org/dc/dcmitype/StillImage" />
        <dc:title />
      </cc:Work>
    </rdf:RDF>
  </metadata>
  <g
     inkscape:label="BG"
     inkscape:groupmode="layer"
     id="layer1"
     transform="translate(0,-191.16665)"
     sodipodi:insensitive="true" />
  <g
     inkscape:groupmode="layer"
     id="layer3"
     inkscape:label="Road_E"
     style="display:none"
     sodipodi:insensitive="true">
    <rect
       y="62.895248"
       x="77.2584"
       height="23.434523"
       width="85.422623"
       id="rect4522"
       style="fill:#aa4400;fill-opacity:1;stroke-width:0.26458332" />
  </g>
  <g
     inkscape:groupmode="layer"
     id="layer4"
     inkscape:label="Road_W"
     style="display:none"
     sodipodi:insensitive="true">
    <rect
       style="fill:#aa4400;fill-opacity:1;stroke-width:0.26458332"
       id="rect4518"
       width="85.422623"
       height="23.434523"
       x="-42.333332"
       y="62.895248" />
  </g>
  <g
     inkscape:groupmode="layer"
     id="layer2"
     inkscape:label="Road_S"
     style="display:none"
     sodipodi:insensitive="true">
    <rect
       y="69.69886"
       x="27.214287"
       height="87.690468"
       width="40.065475"
       id="rect4525"
       style="opacity:1;fill:#d45500;fill-opacity:1;stroke-width:0.2296313" />
  </g>
  <g
     inkscape:groupmode="layer"
     id="layer5"
     inkscape:label="Road_N"
     style="display:none;opacity:1"
     sodipodi:insensitive="true">
    <rect
       style="fill:#aa4400;fill-opacity:1;stroke-width:0.2296313"
       id="rect4513"
       width="40.065475"
       height="87.690468"
       x="27.214287"
       y="-14.967847" />
  </g>
  <g
     inkscape:groupmode="layer"
     id="layer7"
     inkscape:label="Road_Center"
     style="display:none"
     sodipodi:insensitive="true">
    <rect
       style="fill:#aa4400;fill-opacity:1;stroke-width:0.26458332"
       id="rect4516"
       width="71.059525"
       height="40.82143"
       x="12.851191"
       y="54.579777" />
  </g>
  <g
     inkscape:groupmode="layer"
     id="layer6"
     inkscape:label="Bush"
     style="display:none;opacity:0.78899997">
    <rect
       style="fill:#800000;fill-opacity:1;stroke-width:0.26458332"
       id="rect44"
       width="15.119047"
       height="24.946428"
       x="115.66072"
       y="30.994047" />
    <ellipse
       style="fill:#008000;fill-opacity:1;stroke-width:0.26458332"
       id="path42"
       cx="124.35415"
       cy="25.702379"
       rx="29.860117"
       ry="18.898809" />
  </g>
  <g
     inkscape:groupmode="layer"
     id="layer15"
     inkscape:label="Bug Shadow"
     style="display:none;opacity:0.5"
     sodipodi:insensitive="true">
    <g
       style="display:inline"
       id="g688"
       transform="translate(1.0820495,1.2173057)">
      <g
         id="g684">
        <path
           sodipodi:nodetypes="ccccc"
           inkscape:connector-curvature="0"
           id="path670"
           d="m 141.57087,34.051883 2.98945,1.221078 -2.98945,17.48069 v 0 z"
           style="opacity:1;fill:#1a1a1a;fill-opacity:1;stroke-width:0.04625541" />
        <g
           style="fill:#1a1a1a"
           transform="matrix(0.46061857,0,0,0.48601971,107.64845,3.3373075)"
           id="g678">
          <path
             id="path672"
             d="M 53.672619,45.546127 A 21.733631,13.79613 0 0 1 31.938988,59.342257 21.733631,13.79613 0 0 1 10.205357,45.546127 21.733631,13.79613 0 0 1 31.938988,31.749997 21.733631,13.79613 0 0 1 53.672619,45.546127 Z"
             style="opacity:1;fill:#1a1a1a;fill-opacity:1;stroke-width:0.26458332"
             inkscape:connector-curvature="0" />
          <g
             style="fill:#1a1a1a"
             id="g676">
            <path
               id="path674"
               d="M 89.040298,27.285629 A 23.968445,18.735884 0 0 1 65.071854,46.021513 23.968445,18.735884 0 0 1 41.103409,27.285629 23.968445,18.735884 0 0 1 65.071854,8.5497456 23.968445,18.735884 0 0 1 89.040298,27.285629 Z"
               style="fill:#1a1a1a;fill-opacity:1;stroke-width:0.23452972"
               transform="matrix(0.95629116,0.29241617,-0.28295771,0.95913239,0,0)"
               inkscape:connector-curvature="0" />
          </g>
        </g>
        <path
           id="path680"
           d="m 144.32739,41.972071 a 7.8445927,6.4263623 47.412293 0 1 -9.80153,-4.197948 7.8445927,6.4263623 47.412293 0 1 2.25023,-9.322835 7.8445927,6.4263623 47.412293 0 1 9.80153,4.197949 7.8445927,6.4263623 47.412293 0 1 -2.25023,9.322834 z"
           style="fill:#1a1a1a;fill-opacity:1;stroke-width:0.07857939"
           inkscape:connector-curvature="0" />
        <path
           style="fill:#1a1a1a;fill-opacity:1;stroke-width:0.07765546"
           d="m 124.08419,5.6365373 c 1.90653,-0.3647624 4.54233,0.8270048 7.36853,5.3063557 2.81974,4.469094 5.04634,10.970464 5.33456,14.804175 -0.38328,-3.228361 -2.31155,-8.259897 -4.7526,-11.750473 -3.50393,-5.0104463 -6.73647,-4.9470401 -8.39951,-3.478334 -1.40464,1.240505 -2.94165,3.511168 -1.27415,7.205797 -3.75695,-6.031911 -1.80491,-9.451291 -0.0339,-11.1626595 0.47324,-0.4573032 1.06742,-0.7929265 1.75702,-0.9248612 z m 9.29558,22.6705887 c 0.99083,0.458288 1.83604,0.680111 2.41948,0.585336 -0.57352,0.136245 -1.41718,-0.0881 -2.41948,-0.585336 z"
           id="path682"
           inkscape:connector-curvature="0" />
      </g>
      <path
         style="fill:#1a1a1a;fill-opacity:1;stroke-width:0.1003105"
         d="m 150.17405,7.4101797 c -2.38882,-0.7925097 -5.95306,0.2836883 -10.26871,5.5372323 -4.30578,5.241514 -8.16444,13.186652 -9.12557,18.046635 0.98965,-4.068586 4.23892,-10.182486 7.90807,-14.235614 5.26677,-5.817947 9.40266,-5.185003 11.30887,-3.020425 1.61003,1.828256 3.23087,4.998252 0.5223,9.444712 5.74887,-7.082776 3.77298,-11.794578 1.76569,-14.288329 -0.53638,-0.6663674 -1.24662,-1.1975608 -2.11065,-1.4842113 z M 134.75484,34.853891 c -1.34143,0.417731 -2.45962,0.557514 -3.19325,0.336567 0.71452,0.27236 1.83111,0.129077 3.19325,-0.336567 z"
         id="path686"
         inkscape:connector-curvature="0" />
    </g>
  </g>
  <g
     inkscape:groupmode="layer"
     id="layer8"
     inkscape:label="Bug"
     style="display:none"
     sodipodi:insensitive="true">
    <g
       id="g668">
      <g
         id="g657">
        <path
           style="opacity:1;fill:#1a1a1a;fill-opacity:1;stroke-width:0.04625541"
           d="m 141.57087,34.051883 2.98945,1.221078 -2.98945,17.48069 v 0 z"
           id="rect213"
           inkscape:connector-curvature="0"
           sodipodi:nodetypes="ccccc" />
        <g
           id="g246"
           transform="matrix(0.46061857,0,0,0.48601971,107.64845,3.3373075)"
           style="fill:#1a1a1a">
          <path
             inkscape:connector-curvature="0"
             style="opacity:1;fill:#1a1a1a;fill-opacity:1;stroke-width:0.26458332"
             d="M 53.672619,45.546127 A 21.733631,13.79613 0 0 1 31.938988,59.342257 21.733631,13.79613 0 0 1 10.205357,45.546127 21.733631,13.79613 0 0 1 31.938988,31.749997 21.733631,13.79613 0 0 1 53.672619,45.546127 Z"
             id="path237" />
          <g
             id="g240"
             style="fill:#1a1a1a">
            <path
               inkscape:connector-curvature="0"
               transform="matrix(0.95629116,0.29241617,-0.28295771,0.95913239,0,0)"
               style="fill:#1a1a1a;fill-opacity:1;stroke-width:0.23452972"
               d="M 89.040298,27.285629 A 23.968445,18.735884 0 0 1 65.071854,46.021513 23.968445,18.735884 0 0 1 41.103409,27.285629 23.968445,18.735884 0 0 1 65.071854,8.5497456 23.968445,18.735884 0 0 1 89.040298,27.285629 Z"
               id="path209" />
          </g>
        </g>
        <path
           inkscape:connector-curvature="0"
           style="fill:#1a1a1a;fill-opacity:1;stroke-width:0.07857939"
           d="m 144.32739,41.972071 a 7.8445927,6.4263623 47.412293 0 1 -9.80153,-4.197948 7.8445927,6.4263623 47.412293 0 1 2.25023,-9.322835 7.8445927,6.4263623 47.412293 0 1 9.80153,4.197949 7.8445927,6.4263623 47.412293 0 1 -2.25023,9.322834 z"
           id="ellipse211" />
        <path
           inkscape:connector-curvature="0"
           id="path265"
           d="m 124.08419,5.6365373 c 1.90653,-0.3647624 4.54233,0.8270048 7.36853,5.3063557 2.81974,4.469094 5.04634,10.970464 5.33456,14.804175 -0.38328,-3.228361 -2.31155,-8.259897 -4.7526,-11.750473 -3.50393,-5.0104463 -6.73647,-4.9470401 -8.39951,-3.478334 -1.40464,1.240505 -2.94165,3.511168 -1.27415,7.205797 -3.75695,-6.031911 -1.80491,-9.451291 -0.0339,-11.1626595 0.47324,-0.4573032 1.06742,-0.7929265 1.75702,-0.9248612 z m 9.29558,22.6705887 c 0.99083,0.458288 1.83604,0.680111 2.41948,0.585336 -0.57352,0.136245 -1.41718,-0.0881 -2.41948,-0.585336 z"
           style="fill:#1a1a1a;fill-opacity:1;stroke-width:0.07765546" />
      </g>
      <path
         inkscape:connector-curvature="0"
         id="path259"
         d="m 150.17405,7.4101797 c -2.38882,-0.7925097 -5.95306,0.2836883 -10.26871,5.5372323 -4.30578,5.241514 -8.16444,13.186652 -9.12557,18.046635 0.98965,-4.068586 4.23892,-10.182486 7.90807,-14.235614 5.26677,-5.817947 9.40266,-5.185003 11.30887,-3.020425 1.61003,1.828256 3.23087,4.998252 0.5223,9.444712 5.74887,-7.082776 3.77298,-11.794578 1.76569,-14.288329 -0.53638,-0.6663674 -1.24662,-1.1975608 -2.11065,-1.4842113 z M 134.75484,34.853891 c -1.34143,0.417731 -2.45962,0.557514 -3.19325,0.336567 0.71452,0.27236 1.83111,0.129077 3.19325,-0.336567 z"
         style="fill:#1a1a1a;fill-opacity:1;stroke-width:0.1003105" />
    </g>
    <g
       id="g257"
       transform="matrix(0.46061857,0,0,0.48601971,2.4903314,-4.0108483)"
       style="fill:#e6e6e6">
      <path
         inkscape:connector-curvature="0"
         id="path248"
         d="m 257.55618,65.814988 a 5.6946279,9.4446769 26.617956 0 0 8.2392,-4.50302 5.6946279,9.4446769 26.617956 0 0 1.65501,-10.768563 z"
         style="fill:#e6e6e6;fill-opacity:1;stroke-width:0.11264347" />
      <path
         style="fill:#e6e6e6;fill-opacity:1;stroke-width:0.08380026"
         d="m 250.50133,66.314278 a 7.0006061,4.252022 54.55319 0 1 -6.58813,-2.4827 7.0006061,4.252022 54.55319 0 1 -2.30519,-7.6961 z"
         id="path253"
         inkscape:connector-curvature="0" />
    </g>
  </g>
  <g
     inkscape:groupmode="layer"
     id="layer16"
     inkscape:label="Berry Shadow"
     style="display:none;opacity:0.5"
     sodipodi:insensitive="true">
    <ellipse
       transform="matrix(0.93613654,-0.35163672,0.4097568,0.91219481,0,0)"
       ry="4.787375"
       rx="8.326767"
       cy="52.386181"
       cx="85.76136"
       id="ellipse705"
       style="display:inline;opacity:1;fill:#000000;fill-opacity:1;stroke-width:0.04463637" />
  </g>
  <g
     inkscape:groupmode="layer"
     id="layer9"
     inkscape:label="Berry"
     style="display:none"
     sodipodi:insensitive="true">
    <ellipse
       style="display:inline;opacity:1;fill:#000000;fill-opacity:1;stroke-width:0.04463637"
       id="path432"
       cx="85.161087"
       cy="51.116856"
       rx="8.326767"
       ry="4.787375"
       transform="matrix(0.93613654,-0.35163672,0.4097568,0.91219481,0,0)" />
    <g
       id="g207"
       transform="matrix(0.16755187,-0.13489673,0.14304683,0.15800559,52.777918,42.43519)"
       style="display:inline;fill:#e6e6e6">
      <path
         sodipodi:nodetypes="ccccc"
         inkscape:connector-curvature="0"
         id="path196"
         d="m 250.18806,60.278751 c 1.63604,-1.724524 4.76963,-2.167956 10.04913,-8.515181 -10.70785,4.061705 -12.31624,5.040464 -14.11817,6.1995 -3.9539,2.557835 -1.82463,3.624147 -3.94398,11.655474 6.0659,-7.145121 6.61137,-8.436314 8.01302,-9.339793 z"
         style="fill:#e6e6e6;fill-opacity:1;stroke-width:0.11566541" />
      <path
         style="fill:#e6e6e6;fill-opacity:1;stroke-width:0.11566541"
         d="m 246.04281,60.762915 c 3.20942,0.810231 4.17711,2.512265 15.95067,5.085803 -7.91896,-5.682325 -9.77618,-6.5165 -11.97009,-7.447755 -4.84046,-2.042656 -6.65999,-0.814316 -21.31791,-1.559497 13.26002,2.964626 15.62731,3.19716 17.33733,3.921449 z"
         id="path202"
         inkscape:connector-curvature="0"
         sodipodi:nodetypes="ccccc" />
    </g>
  </g>
  <g
     inkscape:groupmode="layer"
     id="layer17"
     inkscape:label="Player Shadow"
     style="opacity:0.5">
    <path
       inkscape:connector-curvature="0"
       id="path709"
       d="m 49.510102,13.394993 a 7.8649228,14.628332 0 0 0 -7.864637,14.628048 7.8649228,14.628332 0 0 0 4.468461,13.17439 v 3.257682 h -4.468461 v 15.709116 a 9.6274849,5.0756867 15.361862 0 0 -5.78776,-0.349848 3.7225562,8.9892668 18.601342 0 0 -0.03669,-0.02585 3.7225562,8.9892668 18.601342 0 0 -6.426483,6.616649 3.7225562,8.9892668 18.601342 0 0 -1.098124,4.375963 l -8.938472,-5.415175 -2.803963,5.817733 14.310238,8.669239 2.308902,-4.789889 a 3.7225562,8.9892668 18.601342 0 0 2.847888,-5.066358 3.7225562,8.9892668 18.601342 0 0 0.364836,-1.086237 9.6274849,5.0756867 15.361862 0 0 3.446817,1.268138 9.6274849,5.0756867 15.361862 0 0 1.812811,0.358634 v 0.569476 h 12.909807 a 8.9869983,4.1251465 64.003927 0 0 0.687811,1.472777 8.9869983,4.1251465 64.003927 0 0 0.221175,0.407728 4.5580794,10.720765 0 0 0 -0.406175,4.131014 h -0.721405 v 7.200593 H 70.42407 V 77.118224 H 64.162954 A 4.5580794,10.720765 0 0 0 64.096808,75.548295 8.9869983,4.1251465 64.003927 0 0 62.188395,68.030406 8.9869983,4.1251465 64.003927 0 0 56.481251,62.15583 V 44.455113 H 52.37039 v -2.806031 a 7.8649228,14.628332 0 0 0 2.16576,-2.391068 18.84813,7.3830618 11.927024 0 1 -8.06514,-8.121986 l 10.375593,2.112533 a 7.8649228,14.628332 0 0 0 0.512114,-4.375959 2.6649423,6.2600643 67.17382 0 0 2.886647,-0.807704 2.6649423,6.2600643 67.17382 0 0 4.990391,-4.880322 2.6649423,6.2600643 67.17382 0 0 -6.619751,-0.21239 2.6649423,6.2600643 67.17382 0 0 -1.588532,0.754476 7.8649228,14.628332 0 0 0 -7.51737,-10.331669 z m 4.389395,5.622912 a 1.1618636,2.5048516 0 0 1 1.162203,2.504757 1.1618636,2.5048516 0 0 1 -1.162203,2.504757 1.1618636,2.5048516 0 0 1 -1.161685,-2.504757 1.1618636,2.5048516 0 0 1 1.161685,-2.504757 z m -3.405995,1.591118 a 1.1618636,3.9075682 0 0 1 1.161688,3.907255 1.1618636,3.9075682 0 0 1 -1.161688,3.90777 1.1618636,3.9075682 0 0 1 -1.1622,-3.90777 1.1618636,3.9075682 0 0 1 1.1622,-3.907255 z M 8.6691831,47.170193 a 15.684551,7.193698 9.7935415 0 0 14.5469159,9.671243 15.684551,7.193698 9.7935415 0 0 16.406233,-4.60592 z"
       style="display:inline;fill:#000000;fill-opacity:1;stroke-width:0.0662407" />
  </g>
  <g
     inkscape:groupmode="layer"
     id="layer10"
     inkscape:label="Player"
     style="display:inline">
    <path
       style="fill:#000000;fill-opacity:1;stroke-width:0.25035855"
       d="m 183.03516,46.537109 a 29.725693,55.288184 0 0 0 -29.72461,55.287111 29.725693,55.288184 0 0 0 16.88867,49.79297 v 12.3125 h -16.88867 v 59.37304 a 36.387345,19.183698 15.361862 0 0 -21.875,-1.32226 14.069504,33.975182 18.601342 0 0 -0.13867,-0.0977 14.069504,33.975182 18.601342 0 0 -24.28907,25.00781 14.069504,33.975182 18.601342 0 0 -4.15039,16.53907 l -33.783201,-20.4668 -10.597657,21.98828 54.085938,32.76563 8.72656,-18.10352 a 14.069504,33.975182 18.601342 0 0 10.76367,-19.14844 14.069504,33.975182 18.601342 0 0 1.37891,-4.10546 36.387345,19.183698 15.361862 0 0 13.02734,4.79296 36.387345,19.183698 15.361862 0 0 6.85157,1.35547 v 2.15235 h 48.79297 a 33.966608,15.591105 64.003927 0 0 2.5996,5.5664 33.966608,15.591105 64.003927 0 0 0.83594,1.54102 17.227387,40.519427 0 0 0 -1.53515,15.61328 h -2.72657 v 27.21484 h 60.80274 v -27.21484 h -23.66406 a 17.227387,40.519427 0 0 0 -0.25,-5.93359 33.966608,15.591105 64.003927 0 0 -7.2129,-28.41407 33.966608,15.591105 64.003927 0 0 -21.57031,-22.20312 V 163.92969 H 193.8457 v -10.60547 a 29.725693,55.288184 0 0 0 8.18555,-9.03711 71.237027,27.904486 11.927024 0 1 -30.48242,-30.69727 l 39.21484,7.98438 a 29.725693,55.288184 0 0 0 1.93555,-16.53906 10.072223,23.660086 67.17382 0 0 10.91016,-3.05274 10.072223,23.660086 67.17382 0 0 18.86132,-18.445311 10.072223,23.660086 67.17382 0 0 -25.01953,-0.802734 10.072223,23.660086 67.17382 0 0 -6.0039,2.851563 29.725693,55.288184 0 0 0 -28.41211,-39.048829 z M 199.625,67.789062 a 4.3912955,9.4671557 0 0 1 4.39258,9.466797 4.3912955,9.4671557 0 0 1 -4.39258,9.466797 4.3912955,9.4671557 0 0 1 -4.39062,-9.466797 4.3912955,9.4671557 0 0 1 4.39062,-9.466797 z m -12.87305,6.013672 a 4.3912955,14.768762 0 0 1 4.39063,14.767578 4.3912955,14.768762 0 0 1 -4.39063,14.769528 4.3912955,14.768762 0 0 1 -4.39257,-14.769528 4.3912955,14.768762 0 0 1 4.39257,-14.767578 z M 28.675781,174.19141 a 59.280193,27.18878 9.7935415 0 0 54.980469,36.55273 59.280193,27.18878 9.7935415 0 0 62.00781,-17.4082 z"
       transform="scale(0.26458333)"
       id="path464"
       inkscape:connector-curvature="0" />
  </g>
  <g
     inkscape:groupmode="layer"
     id="layer18"
     inkscape:label="Hand_Extended Shadow"
     style="display:inline;opacity:0.5">
    <path
       inkscape:connector-curvature="0"
       id="path713"
       d="m 84.0345,22.947137 a 2.3886772,5.4826799 33.748976 0 0 -4.398698,3.586344 2.3886772,5.4826799 33.748976 0 0 -1.400432,3.152778 c -2.572728,0.465752 -5.980263,2.155032 -8.488888,3.624586 -3.939876,2.307984 -11.339812,9.027837 -9.685714,11.233941 1.654101,2.206098 -6.779656,9.018264 11.371916,-6.20944 1.899526,-1.593551 5.185087,-3.158808 7.533392,-4.610574 a 3.1518309,1.3283086 27.12112 0 0 1.471744,0.99994 3.1518309,1.3283086 27.12112 0 0 3.387905,0.227377 3.1518309,1.3283086 27.12112 0 0 -2.234488,-2.621547 3.1518309,1.3283086 27.12112 0 0 -0.46922,-0.21704 c 0.237874,-0.250423 0.408625,-0.495607 0.505394,-0.735357 a 2.3886772,5.4826799 33.748976 0 0 2.199865,-2.524392 2.3886772,5.4826799 33.748976 0 0 0.875916,-5.763989 2.3886772,5.4826799 33.748976 0 0 -0.668692,-0.142627 z"
       style="display:inline;fill:#000000;fill-opacity:1;stroke-width:0.20143981" />
  </g>
  <g
     inkscape:groupmode="layer"
     id="layer11"
     inkscape:label="Hand_Extended"
     style="display:inline;opacity:1"
     sodipodi:insensitive="true">
    <path
       style="fill:#000000;fill-opacity:1;stroke-width:0.76134735"
       d="m 315.05469,83.662109 a 9.0280713,20.72194 33.748976 0 0 -16.625,13.554688 9.0280713,20.72194 33.748976 0 0 -5.29297,11.916013 c -9.7237,1.76032 -22.60257,8.145 -32.08399,13.69922 -14.89087,8.72309 -42.85913,34.12096 -36.60742,42.45899 6.25172,8.33801 -25.6239,34.08478 42.98047,-23.46875 7.17931,-6.02287 19.59718,-11.9388 28.47266,-17.42579 a 11.912432,5.020379 27.12112 0 0 5.5625,3.7793 11.912432,5.020379 27.12112 0 0 12.80468,0.85938 11.912432,5.020379 27.12112 0 0 -8.44531,-9.90821 11.912432,5.020379 27.12112 0 0 -1.77343,-0.82031 c 0.89905,-0.94648 1.54441,-1.87316 1.91015,-2.7793 a 9.0280713,20.72194 33.748976 0 0 8.31445,-9.54101 9.0280713,20.72194 33.748976 0 0 3.31055,-21.785158 9.0280713,20.72194 33.748976 0 0 -2.52734,-0.539063 z"
       id="path527"
       inkscape:connector-curvature="0"
       transform="scale(0.26458333)" />
  </g>
  <g
     inkscape:groupmode="layer"
     id="layer19"
     inkscape:label="Hand_Back Shadow"
     style="display:none;opacity:0.5"
     sodipodi:insensitive="true">
    <g
       style="display:inline"
       id="g728"
       transform="translate(0.9467933,0.13525618)">
      <path
         style="fill:#000000;fill-opacity:1;stroke-width:0.3104158"
         d="m 22.387553,37.809063 a 2.9648576,5.5949187 30.061433 0 0 -5.368647,3.35742 2.9648576,5.5949187 30.061433 0 0 -1.230712,3.896634 0.76512448,5.7923864 30.061433 0 1 2.802744,-3.367291 0.76512448,5.7923864 30.061433 0 1 -2.239424,5.397031 0.76512448,5.7923864 30.061433 0 1 -0.01034,0.01786 2.9648576,5.5949187 30.061433 0 0 0.440866,0.383377 2.9648576,5.5949187 30.061433 0 0 0.552841,0.190941 0.76512448,5.7923864 30.061433 0 1 0.01,-0.01724 0.76512448,5.7923864 30.061433 0 1 3.563743,-4.63054 0.76512448,5.7923864 30.061433 0 1 -1.52244,4.106665 2.9648576,5.5949187 30.061433 0 0 2.764974,-3.006992 2.9648576,5.5949187 30.061433 0 0 0.236411,-6.327859 z"
         id="path722"
         inkscape:connector-curvature="0" />
      <path
         style="fill:#000000;fill-opacity:1;stroke-width:0.22545703"
         d="m 33.426082,38.970559 a 6.2153817,2.0084519 7.5922376 0 1 -6.426256,1.169656 6.2153817,2.0084519 7.5922376 0 1 -5.895533,-2.812034 6.2153817,2.0084519 7.5922376 0 1 6.426255,-1.169656 6.2153817,2.0084519 7.5922376 0 1 5.895534,2.812034 z"
         id="path724"
         inkscape:connector-curvature="0" />
      <path
         style="fill:#000000;fill-opacity:1;stroke-width:0.22545758"
         d="m 40.563416,43.373063 a 6.4525982,1.4770877 31.42334 0 1 -5.91437,-1.76092 6.4525982,1.4770877 31.42334 0 1 -5.181109,-4.765619 6.4525982,1.4770877 31.42334 0 1 5.914371,1.76092 6.4525982,1.4770877 31.42334 0 1 5.181108,4.765619 z"
         id="path726"
         inkscape:connector-curvature="0" />
    </g>
  </g>
  <g
     inkscape:groupmode="layer"
     id="layer12"
     inkscape:label="Hand_Back"
     style="display:none"
     sodipodi:insensitive="true">
    <g
       id="g720">
      <path
         inkscape:connector-curvature="0"
         id="path537"
         d="m 22.387553,37.809063 a 2.9648576,5.5949187 30.061433 0 0 -5.368647,3.35742 2.9648576,5.5949187 30.061433 0 0 -1.230712,3.896634 0.76512448,5.7923864 30.061433 0 1 2.802744,-3.367291 0.76512448,5.7923864 30.061433 0 1 -2.239424,5.397031 0.76512448,5.7923864 30.061433 0 1 -0.01034,0.01786 2.9648576,5.5949187 30.061433 0 0 0.440866,0.383377 2.9648576,5.5949187 30.061433 0 0 0.552841,0.190941 0.76512448,5.7923864 30.061433 0 1 0.01,-0.01724 0.76512448,5.7923864 30.061433 0 1 3.563743,-4.63054 0.76512448,5.7923864 30.061433 0 1 -1.52244,4.106665 2.9648576,5.5949187 30.061433 0 0 2.764974,-3.006992 2.9648576,5.5949187 30.061433 0 0 0.236411,-6.327859 z"
         style="fill:#000000;fill-opacity:1;stroke-width:0.3104158" />
      <path
         inkscape:connector-curvature="0"
         id="path549"
         d="m 33.426082,38.970559 a 6.2153817,2.0084519 7.5922376 0 1 -6.426256,1.169656 6.2153817,2.0084519 7.5922376 0 1 -5.895533,-2.812034 6.2153817,2.0084519 7.5922376 0 1 6.426255,-1.169656 6.2153817,2.0084519 7.5922376 0 1 5.895534,2.812034 z"
         style="fill:#000000;fill-opacity:1;stroke-width:0.22545703" />
      <path
         inkscape:connector-curvature="0"
         id="path551"
         d="m 40.563416,43.373063 a 6.4525982,1.4770877 31.42334 0 1 -5.91437,-1.76092 6.4525982,1.4770877 31.42334 0 1 -5.181109,-4.765619 6.4525982,1.4770877 31.42334 0 1 5.914371,1.76092 6.4525982,1.4770877 31.42334 0 1 5.181108,4.765619 z"
         style="fill:#000000;fill-opacity:1;stroke-width:0.22545758" />
    </g>
  </g>
</svg>
