<?xml version="1.0" encoding="UTF-8" standalone="no"?>
<!-- Created with Inkscape (http://www.inkscape.org/) -->

<svg
   xmlns:dc="http://purl.org/dc/elements/1.1/"
   xmlns:cc="http://creativecommons.org/ns#"
   xmlns:rdf="http://www.w3.org/1999/02/22-rdf-syntax-ns#"
   xmlns:svg="http://www.w3.org/2000/svg"
   xmlns="http://www.w3.org/2000/svg"
   xmlns:sodipodi="http://sodipodi.sourceforge.net/DTD/sodipodi-0.dtd"
   xmlns:inkscape="http://www.inkscape.org/namespaces/inkscape"
   width="400"
   height="400"
   viewBox="0 0 105.83333 105.83334"
   version="1.1"
   id="svg34"
   inkscape:version="0.92.2 (5c3e80d, 2017-08-06)"
   sodipodi:docname="Editor_SaveWaveButton.svg"
   inkscape:export-filename="C:\Users\Barna\source\repos\Bugs-and-Berries\inkscape files\Editor_TrashWaveButton.png"
   inkscape:export-xdpi="96"
   inkscape:export-ydpi="96">
  <defs
     id="defs28">
    <inkscape:perspective
       sodipodi:type="inkscape:persp3d"
       inkscape:vp_x="0 : 52.91667 : 1"
       inkscape:vp_y="0 : 1000 : 0"
       inkscape:vp_z="105.83333 : 52.91667 : 1"
       inkscape:persp3d-origin="52.916665 : 35.27778 : 1"
       id="perspective91" />
  </defs>
  <sodipodi:namedview
     id="base"
     pagecolor="#ffffff"
     bordercolor="#666666"
     borderopacity="1.0"
     inkscape:pageopacity="0.0"
     inkscape:pageshadow="2"
     inkscape:zoom="0.98994949"
     inkscape:cx="566.36258"
     inkscape:cy="139.5321"
     inkscape:document-units="mm"
     inkscape:current-layer="layer3"
     showgrid="false"
     units="px"
     inkscape:pagecheckerboard="true"
     inkscape:window-width="2160"
     inkscape:window-height="1346"
     inkscape:window-x="-11"
     inkscape:window-y="-11"
     inkscape:window-maximized="1" />
  <metadata
     id="metadata31">
    <rdf:RDF>
      <cc:Work
         rdf:about="">
        <dc:format>image/svg+xml</dc:format>
        <dc:type
           rdf:resource="http://purl.org/dc/dcmitype/StillImage" />
        <dc:title></dc:title>
      </cc:Work>
    </rdf:RDF>
  </metadata>
  <g
     inkscape:label="Layer 1"
     inkscape:groupmode="layer"
     id="layer1"
     transform="translate(0,-191.16665)" />
  <g
     inkscape:groupmode="layer"
     id="layer2"
     inkscape:label="Layer 2"
     style="opacity:1">
    <rect
       style="fill:#ececec;fill-opacity:1;stroke-width:0.21038069"
       id="rect37"
       width="106.58929"
       height="107.34522"
       x="4.0871748e-007"
       y="2.2706536e-007" />
  </g>
  <g
     inkscape:groupmode="layer"
     id="layer3"
     inkscape:label="Layer 3">
    <path
       style="fill:#000080;fill-opacity:1;stroke-width:0.99999994"
       d="M 61.451172 51.427734 C 49.567096 51.427734 40 60.418683 40 71.585938 L 40 339.8418 C 40 351.00905 49.567096 360 61.451172 360 L 344.26367 360 C 356.14775 360 365.71484 351.00905 365.71484 339.8418 L 365.71484 71.585938 C 365.71484 60.418683 356.14775 51.427734 344.26367 51.427734 L 61.451172 51.427734 z M 101.45117 100 L 301.40625 100 C 313.29033 100 322.85742 108.99095 322.85742 120.1582 L 322.85742 211.27148 C 322.85742 222.43874 313.29033 231.42773 301.40625 231.42773 L 101.45117 231.42773 C 89.567098 231.42773 80 222.43874 80 211.27148 L 80 120.1582 C 80 108.99095 89.567098 100 101.45117 100 z M 112.71484 248.98242 L 292.10352 248.98242 C 303.34242 248.98242 312.39063 257.97337 312.39062 269.14062 L 312.39062 329.08203 C 312.39062 340.24929 303.34242 349.24023 292.10352 349.24023 L 112.71484 349.24023 C 101.47594 349.24023 92.429687 340.24929 92.429688 329.08203 L 92.429688 269.14062 C 92.429688 257.97337 101.47594 248.98242 112.71484 248.98242 z "
       transform="scale(0.26458333)"
       id="rect184" />
    <rect
       style="fill:#000080;fill-opacity:1;stroke-width:0.26458332"
       id="rect192"
       width="43.832203"
       height="24.588797"
       x="28.33057"
       y="66.878799"
       rx="5.3675494"
       ry="5.3333383" />
  </g>
</svg>
