<?xml version="1.0" encoding="UTF-8" standalone="no"?>
<!-- Created with Inkscape (http://www.inkscape.org/) -->

<svg
   xmlns:dc="http://purl.org/dc/elements/1.1/"
   xmlns:cc="http://creativecommons.org/ns#"
   xmlns:rdf="http://www.w3.org/1999/02/22-rdf-syntax-ns#"
   xmlns:svg="http://www.w3.org/2000/svg"
   xmlns="http://www.w3.org/2000/svg"
   xmlns:sodipodi="http://sodipodi.sourceforge.net/DTD/sodipodi-0.dtd"
   xmlns:inkscape="http://www.inkscape.org/namespaces/inkscape"
   width="400"
   height="400"
   viewBox="0 0 105.83333 105.83334"
   version="1.1"
   id="svg134"
   inkscape:version="0.92.2 (5c3e80d, 2017-08-06)"
   sodipodi:docname="LCDThrowBackLogo.svg"
   inkscape:export-filename="C:\Users\Barna\source\repos\Bugs-and-Berries\inkscape files\LCDThrowBackLogo.png"
   inkscape:export-xdpi="96"
   inkscape:export-ydpi="96">
  <defs
     id="defs128" />
  <sodipodi:namedview
     id="base"
     pagecolor="#ffffff"
     bordercolor="#666666"
     borderopacity="1.0"
     inkscape:pageopacity="0.0"
     inkscape:pageshadow="2"
     inkscape:zoom="0.35"
     inkscape:cx="-67.261174"
     inkscape:cy="981.26158"
     inkscape:document-units="mm"
     inkscape:current-layer="layer9"
     showgrid="false"
     inkscape:pagecheckerboard="true"
     units="px"
     inkscape:window-width="2160"
     inkscape:window-height="1346"
     inkscape:window-x="-11"
     inkscape:window-y="-11"
     inkscape:window-maximized="1" />
  <metadata
     id="metadata131">
    <rdf:RDF>
      <cc:Work
         rdf:about="">
        <dc:format>image/svg+xml</dc:format>
        <dc:type
           rdf:resource="http://purl.org/dc/dcmitype/StillImage" />
        <dc:title></dc:title>
      </cc:Work>
    </rdf:RDF>
  </metadata>
  <g
     inkscape:label="Layer 1"
     inkscape:groupmode="layer"
     id="layer1"
     transform="translate(0,-191.16665)"
     sodipodi:insensitive="true" />
  <g
     inkscape:groupmode="layer"
     id="layer9"
     inkscape:label="Layer 2">
    <rect
       style="fill:#e6e6e6;fill-opacity:1;stroke-width:0.22579569"
       id="rect137"
       width="105.83333"
       height="105.07738"
       x="0.75595176"
       y="1.511905" />
    <path
       style="fill:#000080;fill-opacity:1;stroke-width:0.05733908"
       d="m 22.61997,13.797029 c -0.49012,25.93886 2.0675,21.61769 18.21329,22.07798 l -0.40466,-6.87417 c -17.997,0.67727 -11.77741,-2.94944 -11.86418,-15.38115 z"
       id="path391"
       inkscape:connector-curvature="0"
       sodipodi:nodetypes="ccccc" />
    <path
       inkscape:connector-curvature="0"
       id="path399"
       d="m 62.65435,16.142629 a 12.727676,11.278752 59.25705 0 0 -16.3436,-0.79572 12.727676,11.278752 59.25705 0 0 0.86333,17.46214 12.727676,11.278752 59.25705 0 0 15.71141,1.67394 l -4.54119,-4.81604 a 6.3565498,5.5192526 57.084447 0 1 -7.66664,-1.00739 6.3565498,5.5192526 57.084447 0 1 -0.51924,-8.63846 6.3565498,5.5192526 57.084447 0 1 8.15643,0.56228 6.3565498,5.5192526 57.084447 0 1 0.0669,0.0775 z"
       style="fill:#000080;fill-opacity:1;stroke-width:0.03566357" />
    <path
       style="fill:#000080;fill-opacity:1;stroke-width:0.05470532"
       d="m 68.44999,12.669259 v 23.78151 h 3.81935 a 16.599618,11.827841 0 0 0 15.57133,-11.8019 16.599618,11.827841 0 0 0 -15.57133,-11.79123 v -0.18838 z m 3.81935,3.69178 a 9.1812042,8.4933971 0 0 1 8.6671,8.47655 9.1812042,8.4933971 0 0 1 -8.6671,8.46958 z"
       id="rect425"
       inkscape:connector-curvature="0" />
    <path
       style="fill:#000080;fill-opacity:1;stroke-width:0.04793098"
       d="m 78.64681,69.610729 0.287,23.91628 4.44849,0.13069 -0.1435,-6.83026 5.28736,6.34349 4.31417,0.24103 -9.60153,-10.84858 v -0.73955 l 9.18528,-12.4464 -3.99906,-0.18316 -5.18622,7.64945 -0.1435,-7.1023 z"
       id="rect436"
       inkscape:connector-curvature="0"
       sodipodi:nodetypes="ccccccccccccc" />
    <path
       style="fill:#000080;fill-opacity:1;stroke-width:0.0374977"
       d="m 13.78829,69.842579 v 9.69658 1.47693 12.76619 h 3.81937 c 8.74984,-0.23176 15.56892,-3.3272 15.57129,-7.06839 -0.008,-2.65749 -3.50136,-5.08944 -9.04668,-6.29861 5.54817,-0.94907 4.69547,-3.22668 4.70048,-5.31251 0,0 -2.48102,-4.98995 -11.22509,-5.17164 v -0.0885 z m 3.81937,1.73461 c 4.86175,0.11852 5.99041,1.98892 5.99249,4.10536 -0.006,2.11521 -1.13357,3.73816 -5.99249,3.85661 z m 0,10.173 c 4.8618,0.15108 8.66506,2.37886 8.66707,5.07676 -0.006,2.69629 -3.80819,4.92158 -8.66707,5.07257 z"
       id="path443"
       inkscape:connector-curvature="0"
       sodipodi:nodetypes="ccccccccccccccccccc" />
    <path
       style="fill:#000080;fill-opacity:1;stroke-width:0.03566357"
       d="m 73.85415,72.827329 a 12.727676,11.278752 59.25705 0 0 -16.3436,-0.79573 12.727676,11.278752 59.25705 0 0 0.86333,17.46215 12.727676,11.278752 59.25705 0 0 15.71141,1.67394 l -4.54119,-4.81604 a 6.3565498,5.5192526 57.084447 0 1 -7.66664,-1.00739 6.3565498,5.5192526 57.084447 0 1 -0.51924,-8.63846 6.3565498,5.5192526 57.084447 0 1 8.15643,0.56228 6.3565498,5.5192526 57.084447 0 1 0.0669,0.0775 z"
       id="path448"
       inkscape:connector-curvature="0" />
    <path
       style="fill:#000080;fill-opacity:1;stroke-width:0.04513467"
       d="m 41.95985,67.578989 -7.3307,24.14183 3.29191,1.47691 2.85615,-9.4061 8.84181,0.16231 2.73877,9.34293 3.30542,-1.43172 -9.09444,-24.24087 -4.60892,-0.0453 1.3035,5.6 3.92893,6.48671 -5.12704,-0.11566 3.53742,-6.6554 -2.36166,-2.41473 z"
       id="rect450"
       inkscape:connector-curvature="0"
       sodipodi:nodetypes="ccccccccccccccc" />
    <path
       style="fill:#000080;fill-opacity:1;stroke-width:0.04264668"
       d="m 40.66266,40.230709 v 9.15962 l -8.28091,-0.13263 v -8.77596 h -3.54898 v 22.71606 h 3.54898 v -10.17499 l 8.28091,0.13264 v 9.79132 h 3.5489 v -22.71606 z"
       id="rect456"
       inkscape:connector-curvature="0" />
    <path
       style="fill:#000080;fill-opacity:1;stroke-width:0.05006212"
       d="m 8.5157405,40.353219 0.008,4.88676 6.2678395,0.0922 v 17.53985 h 5.01476 v -17.46602 l 5.27255,0.0776 -0.008,-4.88676 z"
       id="rect463"
       inkscape:connector-curvature="0" />
    <path
       style="fill:#000080;fill-opacity:1;stroke-width:0.05775361"
       d="m 71.2917,40.556509 a 7.856579,11.564981 0 0 0 -7.85655,11.565 7.856579,11.564981 0 0 0 7.85655,11.565 7.856579,11.564981 0 0 0 7.85654,-11.565 7.856579,11.564981 0 0 0 -7.85654,-11.565 z m -1.17013,5.04955 a 4.8476758,7.2484741 0 0 1 4.84769,7.24846 4.8476758,7.2484741 0 0 1 -4.84769,7.24846 4.8476758,7.2484741 0 0 1 -4.8477,-7.24846 4.8476758,7.2484741 0 0 1 4.8477,-7.24846 z"
       id="path468"
       inkscape:connector-curvature="0" />
    <path
       style="fill:#000080;fill-opacity:1;stroke-width:0.03799965"
       d="m 48.17923,39.708469 v 8.7898 h -0.12288 v 14.8624 h 2.70308 v -8.04126 h 0.22712 a 12.201421,7.764139 0 0 0 3.84077,-0.56494 l 2.56718,7.96467 h 4.9148 l -4.56295,-9.03342 a 12.201421,7.764139 0 0 0 4.68583,-6.11345 12.201421,7.764139 0 0 0 -11.44563,-7.74013 v -0.12367 z m 2.80732,2.42345 a 6.7485729,5.5753127 0 0 1 6.37074,5.56424 6.7485729,5.5753127 0 0 1 -6.37074,5.5597 z"
       id="path474"
       inkscape:connector-curvature="0" />
    <path
       style="fill:#000080;fill-opacity:1;stroke-width:0.0417783"
       d="m 97.85602,41.340599 -2.55504,14.13926 -4.46555,-6.55673 -0.28833,4.63518 5.62214,10.44772 v 0 l 5.06204,-22.85906 z m -7.30892,12.21771 0.28833,-4.63518 -4.64566,6.41308 -3.94276,-14.57049 -3.17701,0.38125 6.05327,22.85906 v 0 z"
       id="rect490"
       inkscape:connector-curvature="0"
       sodipodi:nodetypes="cccccccccccccccc" />
  </g>
</svg>
